<svg width="22" height="22" viewBox="0 0 22 22" fill="none" xmlns="http://www.w3.org/2000/svg">
<path fill-rule="evenodd" clip-rule="evenodd" d="M2.64494 7.69015C2.64151 7.92179 2.64047 8.17051 2.64015 8.43797C2.64001 8.55501 2.64001 8.67564 2.64001 8.8V13.2C2.64001 15.2742 2.64001 16.3113 3.28438 16.9556C3.92874 17.6 4.96583 17.6 7.04001 17.6H15.84C17.9142 17.6 18.9513 17.6 19.5956 16.9556C20.24 16.3113 20.24 15.2742 20.24 13.2V8.8C20.24 8.67564 20.24 8.55501 20.2399 8.43797C20.2396 8.17051 20.2385 7.92179 20.2351 7.69015C20.215 6.33252 20.1131 5.56181 19.5956 5.04437C18.9513 4.4 17.9142 4.4 15.84 4.4H7.04001C4.96583 4.4 3.92874 4.4 3.28438 5.04437C2.76693 5.56181 2.66501 6.33252 2.64494 7.69015ZM18.9138 7.62522C18.9061 7.18359 18.889 6.84285 18.8512 6.56189C18.7904 6.10917 18.6983 6.0138 18.6623 5.97775C18.6262 5.9417 18.5308 5.84964 18.0781 5.78878C17.5874 5.7228 16.9144 5.72 15.84 5.72H7.04001C5.96561 5.72 5.29259 5.7228 4.8019 5.78878C4.34919 5.84964 4.25381 5.9417 4.21776 5.97775C4.18171 6.0138 4.08966 6.10917 4.02879 6.56189C3.99102 6.84285 3.97395 7.18359 3.96626 7.62522L10.7513 11.0177C11.1849 11.2345 11.6952 11.2345 12.1287 11.0177L18.9138 7.62522ZM3.96001 9.0979V13.2C3.96001 14.2744 3.96282 14.9474 4.02879 15.4381C4.08966 15.8908 4.18171 15.9862 4.21776 16.0223C4.25381 16.0583 4.34919 16.1504 4.8019 16.2112C5.29259 16.2772 5.96561 16.28 7.04001 16.28H15.84C16.9144 16.28 17.5874 16.2772 18.0781 16.2112C18.5308 16.1504 18.6262 16.0583 18.6623 16.0223C18.6983 15.9862 18.7904 15.8908 18.8512 15.4381C18.9172 14.9474 18.92 14.2744 18.92 13.2V9.0979L12.719 12.1984C11.9139 12.601 10.9662 12.601 10.161 12.1984L3.96001 9.0979Z" fill="#D89D81"/>
</svg>
