<svg width="22" height="22" viewBox="0 0 22 22" fill="none" xmlns="http://www.w3.org/2000/svg">
<path fill-rule="evenodd" clip-rule="evenodd" d="M6.21776 2.84894C6.13185 2.76303 5.99255 2.76303 5.90663 2.84894L5.46473 3.29085C3.83899 4.91659 3.65608 7.49036 5.03557 9.32968L7.00645 11.9575C8.11966 13.4418 9.43818 14.7603 10.9225 15.8735L13.5503 17.8444C15.3896 19.2239 17.9634 19.041 19.5891 17.4152L20.031 16.9733C20.1169 16.8874 20.1169 16.7481 20.031 16.6622L16.9733 13.6045C16.8874 13.5186 16.7481 13.5186 16.6622 13.6045L15.4256 14.8411C15.0502 15.2165 14.4767 15.3096 14.0018 15.0721C11.3214 13.732 9.14802 11.5586 7.80784 8.8782C7.5704 8.40332 7.66347 7.82979 8.0389 7.45437L9.27548 6.21778C9.36139 6.13187 9.36139 5.99257 9.27548 5.90666L6.21776 2.84894ZM4.97325 1.91556C5.57466 1.31416 6.54973 1.31416 7.15114 1.91556L10.2089 4.97328C10.8103 5.57468 10.8103 6.54976 10.2089 7.15117L9.01649 8.34354C10.2217 10.7243 12.1556 12.6583 14.5364 13.8635L15.7288 12.6711C16.3302 12.0697 17.3053 12.0697 17.9067 12.6711L20.9644 15.7288C21.5658 16.3302 21.5658 17.3053 20.9644 17.9067L20.5225 18.3486C18.4323 20.4389 15.1231 20.674 12.7583 18.9004L10.1305 16.9295C8.54611 15.7413 7.13871 14.3339 5.95045 12.7495L3.97957 10.1217C2.20594 7.75684 2.44111 4.4477 4.53135 2.35747L4.97325 1.91556Z" fill="#D89D81"/>
</svg>
