<svg width="132" height="20" viewBox="0 0 132 20" fill="none" xmlns="http://www.w3.org/2000/svg">
<g clip-path="url(#clip0_4151_385)">
<path d="M9.93217 0.799988L12.2767 8.01584H19.864L13.7256 12.4756L16.0702 19.6914L9.93183 15.2317L3.79347 19.6914L6.13803 12.4756L0 8.01584H7.58727L9.93217 0.799988Z" fill="#3C3C3B"/>
</g>
<g clip-path="url(#clip1_4151_385)">
<path d="M37.9322 0.799988L40.2767 8.01584H47.864L41.7256 12.4756L44.0702 19.6914L37.9318 15.2317L31.7935 19.6914L34.138 12.4756L28 8.01584H35.5873L37.9322 0.799988Z" fill="#3C3C3B"/>
</g>
<g clip-path="url(#clip2_4151_385)">
<path d="M65.9322 0.799988L68.2767 8.01584H75.864L69.7256 12.4756L72.0702 19.6914L65.9318 15.2317L59.7935 19.6914L62.138 12.4756L56 8.01584H63.5873L65.9322 0.799988Z" fill="#3C3C3B"/>
</g>
<g clip-path="url(#clip3_4151_385)">
<path d="M93.9322 0.799988L96.2767 8.01584H103.864L97.7256 12.4756L100.07 19.6914L93.9318 15.2317L87.7935 19.6914L90.138 12.4756L84 8.01584H91.5873L93.9322 0.799988Z" fill="#3C3C3B"/>
</g>
<g clip-path="url(#clip4_4151_385)">
<path d="M121.932 0.799988L124.277 8.01584H131.864L125.726 12.4756L128.07 19.6914L121.932 15.2317L115.793 19.6914L118.138 12.4756L112 8.01584H119.587L121.932 0.799988Z" fill="#3C3C3B"/>
</g>
<defs>
<clipPath id="clip0_4151_385">
<rect width="20" height="20" fill="white"/>
</clipPath>
<clipPath id="clip1_4151_385">
<rect width="20" height="20" fill="white" transform="translate(28)"/>
</clipPath>
<clipPath id="clip2_4151_385">
<rect width="20" height="20" fill="white" transform="translate(56)"/>
</clipPath>
<clipPath id="clip3_4151_385">
<rect width="20" height="20" fill="white" transform="translate(84)"/>
</clipPath>
<clipPath id="clip4_4151_385">
<rect width="20" height="20" fill="white" transform="translate(112)"/>
</clipPath>
</defs>
</svg>
